<svg width="32" height="32" fill="none" xmlns="http://www.w3.org/2000/svg"><g clip-path="url(#clip0_1_66)" fill="#fff"><path d="M12.162 23.92a4.045 4.045 0 00-4.04 4.04 4.045 4.045 0 004.04 4.04 4.045 4.045 0 004.04-4.04 4.045 4.045 0 00-4.04-4.04zm0 5.656a1.618 1.618 0 01-1.616-1.616c0-.891.725-1.616 1.616-1.616.89 0 1.616.725 1.616 1.616 0 .892-.725 1.616-1.616 1.616zm11.959-5.656a4.045 4.045 0 00-4.04 4.04A4.045 4.045 0 0024.12 32a4.045 4.045 0 004.04-4.04 4.045 4.045 0 00-4.04-4.04zm0 5.656a1.618 1.618 0 01-1.616-1.616c0-.891.725-1.616 1.616-1.616a1.617 1.617 0 010 3.232zM31.13 7.892a1.21 1.21 0 00-.948-.458H8.958L7.856 1.866a1.212 1.212 0 00-.97-.957L2.037.02A1.212 1.212 0 101.6 2.405l4.038.74 3.557 17.98c.112.567.61.976 1.19.976h16.969a1.21 1.21 0 001.18-.94l2.83-12.241a1.211 1.211 0 00-.233-1.027zm-4.74 11.785H11.38L9.437 9.859h19.22l-2.267 9.818z"/></g><defs><clipPath id="clip0_1_66"><path fill="#fff" d="M0 0h32v32H0z"/></clipPath></defs></svg>